fontforge.sfdir
StartChar: zero
Encoding: 48 48 52
Width: 744
VWidth: 2136
Flags: W
HStem: 0 93<139 554> 698 93<189 604>
VStem: 46 93<93 612> 604 93<179 698>
LayerCount: 2
Fore
SplineSet
604 791 m 2
 655 791 697 749 697 698 c 2
 697 93 l 2
 697 42 655 0 604 0 c 2
 139 0 l 2
 88 0 46 42 46 93 c 2
 46 698 l 2
 46 749 88 791 139 791 c 2
 604 791 l 2
139 93 m 1
 554 93 l 1
 139 612 l 1
 139 93 l 1
604 179 m 1
 604 698 l 1
 189 698 l 1
 604 179 l 1
EndSplineSet
EndChar
StartChar: one
Encoding: 49 49 53
Width: 744
VWidth: 2136
Flags: W
HStem: 0 93<46 325 418 697> 698 93<46 325>
VStem: 325 93<93 698>
LayerCount: 2
Fore
SplineSet
325 791 m 2
 376 791 418 749 418 698 c 2
 418 93 l 1
 697 93 l 1
 697 0 l 1
 46 0 l 1
 46 93 l 1
 325 93 l 1
 325 698 l 1
 46 698 l 1
 46 791 l 1
 325 791 l 2
EndSplineSet
EndChar
StartChar: two
Encoding: 50 50 54
Width: 744
VWidth: 2136
Flags: W
HStem: 0 93<139 697> 349 93<139 604> 698 93<46 604>
VStem: 46 93<93 349> 604 93<442 698>
CounterMasks: 1 e0
LayerCount: 2
Fore
SplineSet
604 791 m 2
 655 791 697 749 697 698 c 2
 697 442 l 2
 697 391 655 349 604 349 c 2
 139 349 l 1
 139 93 l 1
 697 93 l 1
 697 0 l 1
 46 0 l 1
 46 349 l 2
 46 400 88 442 139 442 c 2
 604 442 l 1
 604 698 l 1
 46 698 l 1
 46 791 l 1
 604 791 l 2
EndSplineSet
EndChar
StartChar: three
Encoding: 51 51 55
Width: 744
VWidth: 2136
Flags: W
HStem: 0 93<46 604> 349 93<46 604> 698 93<46 604>
VStem: 604 93<93 349 442 698>
CounterMasks: 1 e0
LayerCount: 2
Fore
SplineSet
604 791 m 2
 655 791 697 749 697 698 c 2
 697 93 l 2
 697 42 655 0 604 0 c 2
 46 0 l 1
 46 93 l 1
 604 93 l 1
 604 349 l 1
 46 349 l 1
 46 442 l 1
 604 442 l 1
 604 698 l 1
 46 698 l 1
 46 791 l 1
 604 791 l 2
EndSplineSet
EndChar
StartChar: four
Encoding: 52 52 56
Width: 743
VWidth: 2136
Flags: W
HStem: 0 21G<324 417> 0 21G<324 417> 349 93<188 324 417 696> 771 20G<332.021 417>
VStem: 324 93<0 349 442 612>
LayerCount: 2
Fore
SplineSet
417 791 m 1xb8
 417 442 l 1
 696 442 l 1
 696 349 l 1
 417 349 l 1
 417 0 l 1
 324 0 l 1
 324 349 l 1
 46 349 l 1
 46 413 l 1
 348 791 l 1
 417 791 l 1xb8
324 442 m 1
 324 612 l 1
 188 442 l 1
 324 442 l 1
EndSplineSet
EndChar
StartChar: five
Encoding: 53 53 57
Width: 744
VWidth: 2136
Flags: W
HStem: 0 93<46 604> 349 93<139 604> 698 93<139 697>
VStem: 46 93<442 698> 604 93<93 349>
CounterMasks: 1 e0
LayerCount: 2
Fore
SplineSet
46 349 m 1
 46 791 l 1
 697 791 l 1
 697 698 l 1
 139 698 l 1
 139 442 l 1
 604 442 l 2
 655 442 697 400 697 349 c 2
 697 93 l 2
 697 42 655 0 604 0 c 2
 46 0 l 1
 46 93 l 1
 604 93 l 1
 604 349 l 1
 46 349 l 1
EndSplineSet
EndChar
StartChar: six
Encoding: 54 54 58
Width: 744
VWidth: 2136
Flags: W
HStem: 0 93<139 604> 349 93<139 604> 698 93<139 697>
VStem: 46 93<93 349 442 698> 604 93<93 349>
CounterMasks: 1 e0
LayerCount: 2
Fore
SplineSet
46 698 m 2
 46 749 88 791 139 791 c 2
 697 791 l 1
 697 698 l 1
 139 698 l 1
 139 442 l 1
 604 442 l 2
 655 442 697 400 697 349 c 2
 697 93 l 2
 697 42 655 0 604 0 c 2
 139 0 l 2
 88 0 46 42 46 93 c 2
 46 698 l 2
604 349 m 1
 139 349 l 1
 139 93 l 1
 604 93 l 1
 604 349 l 1
EndSplineSet
EndChar
StartChar: seven
Encoding: 55 55 59
Width: 744
VWidth: 2136
Flags: W
HStem: 0 21G<604 697> 0 21G<604 697> 698 93<46 604>
VStem: 604 93<0 698>
LayerCount: 2
Fore
SplineSet
46 698 m 1xb0
 46 791 l 1
 697 791 l 1
 697 0 l 1
 604 0 l 1
 604 698 l 1
 46 698 l 1xb0
EndSplineSet
EndChar
StartChar: eight
Encoding: 56 56 60
Width: 744
VWidth: 2136
Flags: W
HStem: 0 93<139 604> 349 93<139 604> 698 93<139 604>
VStem: 46 93<93 349 442 698> 604 93<93 349 442 698>
CounterMasks: 1 e0
LayerCount: 2
Fore
SplineSet
604 791 m 2
 655 791 697 749 697 698 c 2
 697 93 l 2
 697 42 655 0 604 0 c 2
 139 0 l 2
 88 0 46 42 46 93 c 2
 46 698 l 2
 46 749 88 791 139 791 c 2
 604 791 l 2
604 93 m 1
 604 349 l 1
 139 349 l 1
 139 93 l 1
 604 93 l 1
139 442 m 1
 604 442 l 1
 604 698 l 1
 139 698 l 2
 139 442 l 1
EndSplineSet
EndChar
StartChar: nine
Encoding: 57 57 61
Width: 744
VWidth: 2136
Flags: W
HStem: 0 93<46 604> 349 93<139 604> 698 93<139 604>
VStem: 46 93<442 698> 604 93<93 349 442 698>
CounterMasks: 1 e0
LayerCount: 2
Fore
SplineSet
604 791 m 2
 655 791 697 749 697 698 c 2
 697 93 l 2
 697 42 655 0 604 0 c 2
 46 0 l 1
 46 93 l 1
 604 93 l 1
 604 349 l 1
 139 349 l 2
 88 349 46 391 46 442 c 2
 46 698 l 2
 46 749 88 791 139 791 c 2
 604 791 l 2
604 442 m 1
 604 698 l 1
 139 698 l 1
 139 442 l 1
 604 442 l 1
EndSplineSet
EndChar
StartChar: A
Encoding: 65 65 26
Width: 744
VWidth: 2136
Flags: W
HStem: 0 21G<46 139 604 697> 0 21G<46 139 604 697> 349 93<139 604> 698 93<139 604>
VStem: 46 93<0 349 442 698> 604 93<0 349 442 698>
LayerCount: 2
Fore
SplineSet
604 791 m 2xbc
 655 791 697 749 697 698 c 2
 697 0 l 1
 604 0 l 1
 604 349 l 1
 139 349 l 1
 139 0 l 1
 46 0 l 1
 46 698 l 2
 46 749 88 791 139 791 c 2
 604 791 l 2xbc
139 442 m 1
 604 442 l 1
 604 698 l 1
 139 698 l 1
 139 442 l 1
EndSplineSet
EndChar
StartChar: C
Encoding: 67 67 28
Width: 744
VWidth: 2136
Flags: W
HStem: 0 93<139 697> 698 93<139 697>
VStem: 46 93<93 698>
LayerCount: 2
Fore
SplineSet
46 698 m 2
 46 749 88 791 139 791 c 2
 697 791 l 1
 697 698 l 1
 139 698 l 1
 139 93 l 1
 697 93 l 1
 697 0 l 1
 139 0 l 2
 88 0 46 42 46 93 c 2
 46 698 l 2
EndSplineSet
EndChar
StartChar: D
Encoding: 68 68 29
Width: 744
VWidth: 2136
Flags: W
HStem: 0 93<139 604> 698 93<139 604>
VStem: 46 93<93 698> 604 93<93 698>
LayerCount: 2
Fore
SplineSet
604 791 m 2
 655 791 697 749 697 698 c 2
 697 93 l 2
 697 42 655 0 604 0 c 2
 46 0 l 1
 46 791 l 1
 604 791 l 2
604 93 m 1
 604 698 l 1
 139 698 l 1
 139 93 l 1
 604 93 l 1
EndSplineSet
EndChar
StartChar: E
Encoding: 69 69 30
Width: 744
VWidth: 2136
Flags: W
HStem: 0 93<139 697> 349 93<139 697> 698 93<139 697>
VStem: 46 93<93 349 442 698>
CounterMasks: 1 e0
LayerCount: 2
Fore
SplineSet
697 93 m 1
 697 0 l 1
 46 0 l 1
 46 349 l 1
 46 442 l 1
 46 791 l 1
 697 791 l 1
 697 698 l 1
 139 698 l 1
 139 442 l 1
 697 442 l 1
 697 349 l 1
 139 349 l 1
 139 93 l 1
 697 93 l 1
EndSplineSet
EndChar
StartChar: F
Encoding: 70 70 31
Width: 744
VWidth: 2136
Flags: W
HStem: 0 21G<46 139> 0 21G<46 139> 349 93<139 697> 698 93<139 697>
VStem: 46 93<0 349 442 698>
LayerCount: 2
Fore
SplineSet
139 349 m 1xb8
 139 0 l 1
 46 0 l 1
 46 349 l 1
 46 442 l 1
 46 791 l 1
 697 791 l 1
 697 698 l 1
 139 698 l 1
 139 442 l 1
 697 442 l 1
 697 349 l 1
 139 349 l 1xb8
EndSplineSet
EndChar
StartChar: G
Encoding: 71 71 32
Width: 744
VWidth: 2136
Flags: W
HStem: 0 93<139 604> 349 93<325 604> 698 93<139 697>
VStem: 46 93<93 698> 604 93<93 349>
CounterMasks: 1 e0
LayerCount: 2
Fore
SplineSet
139 0 m 2
 88 0 46 42 46 93 c 2
 46 698 l 2
 46 749 88 791 139 791 c 2
 697 791 l 1
 697 698 l 1
 139 698 l 1
 139 93 l 1
 604 93 l 1
 604 349 l 1
 325 349 l 1
 325 442 l 1
 697 442 l 1
 697 0 l 1
 139 0 l 2
EndSplineSet
EndChar
StartChar: H
Encoding: 72 72 33
Width: 744
VWidth: 2136
Flags: W
HStem: 0 21G<46 139 604 697> 0 21G<46 139 604 697> 349 93<139 604> 771 20G<46 139 604 697>
VStem: 46 93<0 349 442 791> 604 93<0 349 442 791>
LayerCount: 2
Fore
SplineSet
139 349 m 1xbc
 139 0 l 1
 46 0 l 1
 46 349 l 1
 46 442 l 1
 46 791 l 1
 139 791 l 1
 139 442 l 1
 604 442 l 1
 604 791 l 1
 697 791 l 1
 697 442 l 1
 697 349 l 1
 697 0 l 1
 604 0 l 1
 604 349 l 1
 139 349 l 1xbc
EndSplineSet
EndChar
StartChar: I
Encoding: 73 73 34
Width: 744
VWidth: 2136
Flags: W
HStem: 0 93<46 325 418 697> 698 93<46 325 418 697>
VStem: 325 93<93 698>
LayerCount: 2
Fore
SplineSet
418 0 m 1
 325 0 l 1
 46 0 l 1
 46 93 l 1
 325 93 l 1
 325 698 l 1
 46 698 l 1
 46 791 l 1
 325 791 l 1
 418 791 l 1
 697 791 l 1
 697 698 l 1
 418 698 l 1
 418 93 l 1
 697 93 l 1
 697 0 l 1
 418 0 l 1
EndSplineSet
EndChar
StartChar: J
Encoding: 74 74 35
Width: 700
VWidth: 2136
Flags: W
HStem: 0 93<46 325> 698 93<46 325 418 651>
VStem: 325 93<93 698>
LayerCount: 2
Fore
SplineSet
418 93 m 2
 418 42 376 0 325 0 c 2
 46 0 l 1
 46 93 l 1
 325 93 l 1
 325 698 l 1
 46 698 l 1
 46 791 l 1
 651 791 l 1
 651 698 l 1
 418 698 l 1
 418 93 l 2
EndSplineSet
EndChar
StartChar: K
Encoding: 75 75 36
Width: 744
VWidth: 2136
Flags: W
HStem: 0 21G<46 139 606.013 697> 0 21G<46 139 606.013 697> 771 20G<46 139 606.013 697>
VStem: 46 93<0 312 479 791>
LayerCount: 2
Fore
SplineSet
139 312 m 1xb0
 139 0 l 1
 46 0 l 1
 46 370 l 1
 46 421 l 1
 46 791 l 1
 139 791 l 1
 139 479 l 1
 638 791 l 1
 697 791 l 1
 697 719 l 1
 180 395 l 1
 697 72 l 1
 697 0 l 1
 638 0 l 1
 139 312 l 1xb0
EndSplineSet
EndChar
StartChar: L
Encoding: 76 76 37
Width: 744
VWidth: 2136
Flags: W
HStem: 0 93<139 697> 771 20G<46 139>
VStem: 46 93<93 791>
LayerCount: 2
Fore
SplineSet
697 93 m 1
 697 0 l 1
 46 0 l 1
 46 791 l 1
 139 791 l 1
 139 93 l 1
 697 93 l 1
EndSplineSet
EndChar
StartChar: M
Encoding: 77 77 38
Width: 744
VWidth: 2136
Flags: W
HStem: 0 21G<46 139 325 418 604 697> 0 21G<46 139 325 418 604 697> 698 93<139 325 418 604>
VStem: 46 93<0 698> 325 93<0 698> 604 93<0 698>
CounterMasks: 1 1c
LayerCount: 2
Fore
SplineSet
418 791 m 1xbc
 604 791 l 2
 655 791 697 749 697 698 c 2
 697 0 l 1
 604 0 l 1
 604 698 l 1
 418 698 l 1
 418 0 l 1
 325 0 l 1
 325 698 l 1
 139 698 l 1
 139 0 l 1
 46 0 l 1
 46 791 l 1
 418 791 l 1xbc
EndSplineSet
EndChar
StartChar: N
Encoding: 78 78 39
Width: 744
VWidth: 2136
Flags: W
HStem: 0 21G<46 139 612.987 697> 0 21G<46 139 612.987 697> 771 20G<46 130.98 604 697>
VStem: 46 93<0 612> 604 93<179 791>
LayerCount: 2
Fore
SplineSet
604 179 m 1xb8
 604 791 l 1
 697 791 l 1
 697 0 l 1
 629 0 l 1
 139 612 l 1
 139 0 l 1
 46 0 l 1
 46 791 l 1
 115 791 l 1
 604 179 l 1xb8
EndSplineSet
EndChar
StartChar: P
Encoding: 80 80 41
Width: 744
VWidth: 2136
Flags: W
HStem: 0 21G<46 139> 0 21G<46 139> 349 93<139 604> 698 93<139 604>
VStem: 46 93<0 349 442 698> 604 93<442 698>
LayerCount: 2
Fore
SplineSet
46 791 m 2xbc
 604 791 l 2
 655 791 697 749 697 698 c 2
 697 442 l 2
 697 391 655 349 604 349 c 2
 139 349 l 1
 139 0 l 1
 46 0 l 1
 46 791 l 2xbc
604 442 m 1
 604 698 l 1
 139 698 l 1
 139 442 l 1
 604 442 l 1
EndSplineSet
EndChar
StartChar: Q
Encoding: 81 81 42
Width: 744
VWidth: 2136
Flags: W
HStem: 0 93<139 554> 698 93<139 604>
VStem: 46 93<93 698> 604 93<179 698>
LayerCount: 2
Fore
SplineSet
139 791 m 1
 604 791 l 2
 655 791 697 749 697 698 c 2
 697 0 l 1
 629 0 l 1
 139 0 l 2
 88 0 46 42 46 93 c 2
 46 698 l 2
 46 749 88 791 139 791 c 1
554 93 m 1
 372 321 l 1
 372 395 l 1
 431 395 l 1
 604 179 l 1
 604 698 l 1
 139 698 l 1
 139 93 l 1
 554 93 l 1
EndSplineSet
EndChar
StartChar: R
Encoding: 82 82 43
Width: 744
VWidth: 2136
Flags: W
HStem: 0 21G<46 139 606.013 697> 0 21G<46 139 606.013 697> 349 93<255 604> 698 93<139 604>
VStem: 46 93<0 312 442 698> 604 93<442 698>
LayerCount: 2
Fore
SplineSet
604 791 m 2xbc
 655 791 697 749 697 698 c 2
 697 442 l 2
 697 391 655 349 604 349 c 2
 255 349 l 1
 697 72 l 1
 697 0 l 1
 638 0 l 1
 139 312 l 1
 139 0 l 1
 46 0 l 1
 46 791 l 1
 604 791 l 2xbc
604 442 m 1
 604 698 l 1
 139 698 l 1
 139 442 l 1
 604 442 l 1
EndSplineSet
EndChar
StartChar: S
Encoding: 83 83 44
Width: 744
VWidth: 2136
Flags: W
HStem: 0 93<46 604> 349 93<139 604> 698 93<139 697>
VStem: 46 93<442 698> 604 93<93 349>
CounterMasks: 1 e0
LayerCount: 2
Fore
SplineSet
697 698 m 1
 139 698 l 1
 139 442 l 1
 604 442 l 2
 655 442 697 400 697 349 c 2
 697 93 l 2
 697 42 655 0 604 0 c 2
 46 0 l 1
 46 93 l 1
 604 93 l 1
 604 349 l 1
 139 349 l 2
 88 349 46 391 46 442 c 2
 46 698 l 2
 46 749 88 791 139 791 c 2
 697 791 l 1
 697 698 l 1
EndSplineSet
EndChar
StartChar: T
Encoding: 84 84 45
Width: 748
VWidth: 2136
Flags: W
HStem: 0 21G<327 420> 0 21G<327 420> 698 93<48 327 420 699>
VStem: 327 93<0 698>
LayerCount: 2
Fore
SplineSet
699 791 m 1xb0
 699 698 l 1
 420 698 l 1
 420 0 l 1
 327 0 l 1
 327 698 l 1
 48 698 l 1
 48 791 l 1
 327 791 l 1
 420 791 l 1
 699 791 l 1xb0
EndSplineSet
EndChar
StartChar: U
Encoding: 85 85 46
Width: 744
VWidth: 2136
Flags: W
HStem: 0 93<139 604> 771 20G<46 139 604 697>
VStem: 46 93<93 791> 604 93<93 791>
LayerCount: 2
Fore
SplineSet
604 93 m 1
 604 791 l 1
 697 791 l 1
 697 93 l 2
 697 42 655 0 604 0 c 2
 139 0 l 2
 88 0 46 42 46 93 c 2
 46 791 l 1
 139 791 l 1
 139 93 l 1
 604 93 l 1
EndSplineSet
EndChar
StartChar: V
Encoding: 86 86 47
Width: 748
VWidth: 2136
Flags: W
HStem: 0 21G<334 413> 0 21G<334 413> 771 20G<48 134.013 613.019 699>
LayerCount: 2
Fore
SplineSet
374 172 m 1xa0
 621 791 l 1
 699 791 l 1
 699 735 l 1
 405 0 l 1
 342 0 l 1
 48 735 l 1
 48 791 l 1
 126 791 l 1
 374 172 l 1xa0
EndSplineSet
EndChar
StartChar: W
Encoding: 87 87 48
Width: 744
VWidth: 2136
Flags: W
HStem: 0 93<139 325 418 604> 771 20G<46 139 325 418 604 697>
VStem: 46 93<93 791> 325 93<93 791> 604 93<93 791>
CounterMasks: 1 38
LayerCount: 2
Fore
SplineSet
604 93 m 1
 604 791 l 1
 697 791 l 1
 697 0 l 1
 139 0 l 2
 88 0 46 42 46 93 c 2
 46 791 l 1
 139 791 l 1
 139 93 l 1
 325 93 l 1
 325 791 l 1
 418 791 l 1
 418 93 l 1
 604 93 l 1
EndSplineSet
EndChar
StartChar: X
Encoding: 88 88 49
Width: 744
VWidth: 2136
Flags: W
HStem: 0 21G<46 131.012 612.988 697> 0 21G<46 131.012 612.988 697> 771 20G<46 131.012 612.988 697>
LayerCount: 2
Fore
SplineSet
372 470 m 1xa0
 629 791 l 1
 697 791 l 1
 697 728 l 1
 431 395 l 1
 697 63 l 1
 697 0 l 1
 629 0 l 1
 372 321 l 1
 115 0 l 1
 46 0 l 1
 46 63 l 1
 312 395 l 1
 46 728 l 1
 46 791 l 1
 115 791 l 1
 372 470 l 1xa0
EndSplineSet
EndChar
StartChar: Y
Encoding: 89 89 50
Width: 748
VWidth: 2136
Flags: W
HStem: 0 21G<327 420> 0 21G<327 420> 771 20G<48 133.012 614.988 699>
VStem: 327 93<0 379>
LayerCount: 2
Fore
SplineSet
374 470 m 1xb0
 631 791 l 1
 699 791 l 1
 699 728 l 1
 420 379 l 1
 420 0 l 1
 327 0 l 1
 327 379 l 1
 48 728 l 1
 48 791 l 1
 117 791 l 1
 374 470 l 1xb0
EndSplineSet
EndChar
StartChar: Z
Encoding: 90 90 51
Width: 744
VWidth: 2136
Flags: W
HStem: 0 93<189 697> 698 93<46 554>
LayerCount: 2
Fore
SplineSet
46 698 m 1
 46 791 l 1
 697 791 l 1
 697 728 l 1
 189 93 l 1
 697 93 l 1
 697 0 l 1
 46 0 l 1
 46 63 l 1
 554 698 l 1
 46 698 l 1
EndSplineSet
EndChar
StartChar: a
Encoding: 97 97 0
Width: 558
VWidth: 1989
Flags: W
HStem: 0 93<140 418> 231 93<139 418> 462 93<46 418>
VStem: 46 93<93 231> 418 93<93 231 324 462>
CounterMasks: 1 e0
LayerCount: 2
Fore
SplineSet
418 555 m 1
 469 555 511 513 511 462 c 2
 511 0 l 1
 140 0 l 2
 89 0 47 42 47 93 c 2
 46 231 l 2
 46 256 56 279 74 297 c 0
 92 315 114 324 139 324 c 2
 418 324 l 1
 418 462 l 1
 46 462 l 1
 46 555 l 1
 418 555 l 1
140 93 m 2
 418 93 l 1
 418 231 l 1
 139 231 l 1
 140 93 l 2
EndSplineSet
EndChar
StartChar: b
Encoding: 98 98 1
Width: 558
VWidth: 1989
Flags: W
HStem: 0 93<140 418> 462 93<139 418> 767 20G<46 139>
VStem: 46 93<93 462 555 786> 418 93<93 462>
LayerCount: 2
Fore
SplineSet
418 555 m 1
 469 555 511 513 511 462 c 2
 511 93 l 2
 511 68 502 45 484 27 c 0
 466 9 443 0 418 0 c 2
 47 0 l 1
 46 786 l 1
 139 787 l 1
 139 555 l 1
 418 555 l 1
140 93 m 1
 418 93 l 1
 418 462 l 1
 139 462 l 1
 140 93 l 1
EndSplineSet
EndChar
StartChar: c
Encoding: 99 99 2
Width: 558
VWidth: 1989
Flags: W
HStem: 0 93<140 511> 462 93<139 511>
VStem: 47 93<93 462>
LayerCount: 2
Fore
SplineSet
139 462 m 1
 140 93 l 1
 511 93 l 1
 511 0 l 1
 140 0 l 2
 89 0 47 42 47 93 c 2
 46 462 l 2
 46 487 55 510 73 528 c 0
 91 546 114 555 139 555 c 2
 511 555 l 1
 511 462 l 1
 139 462 l 1
EndSplineSet
EndChar
StartChar: d
Encoding: 100 100 3
Width: 558
VWidth: 1989
Flags: W
HStem: 0 93<140 418> 462 93<139 418> 767 20G<418 511>
VStem: 47 93<93 462> 418 93<93 462 555 786>
LayerCount: 2
Fore
SplineSet
418 786 m 1
 511 787 l 1
 511 0 l 1
 140 0 l 2
 89 0 47 42 47 93 c 2
 46 462 l 2
 46 487 55 510 73 528 c 0
 91 546 114 555 139 555 c 2
 418 555 l 1
 418 786 l 1
140 93 m 1
 418 93 l 1
 418 462 l 1
 139 462 l 1
 140 93 l 1
EndSplineSet
EndChar
StartChar: e
Encoding: 101 101 4
Width: 558
VWidth: 1989
Flags: W
HStem: 0 93<140 511> 231 93<139 418> 462 93<139 418>
VStem: 46 93<93 231 324 462> 418 93<324 462>
CounterMasks: 1 e0
LayerCount: 2
Fore
SplineSet
511 0 m 1
 140 0 l 2
 89 0 47 42 47 93 c 2
 46 462 l 2
 46 487 55 510 73 528 c 0
 91 546 114 555 139 555 c 2
 418 555 l 2
 469 555 511 513 511 462 c 2
 511 324 l 2
 511 299 502 276 484 258 c 0
 466 240 443 231 418 231 c 2
 139 231 l 1
 140 93 l 1
 511 93 l 1
 511 0 l 1
139 462 m 1
 139 324 l 1
 418 324 l 1
 418 462 l 1
 139 462 l 1
EndSplineSet
EndChar
StartChar: f
Encoding: 102 102 5
Width: 559
VWidth: 1989
Flags: W
HStem: 0 21G<233 327> 0 21G<233 327> 462 93<47 233 326 512> 693 93<326 512>
VStem: 233 93<0 462 555 693>
LayerCount: 2
Fore
SplineSet
233 0 m 1xb8
 233 462 l 1
 47 462 l 1
 47 555 l 1
 233 555 l 1
 233 693 l 2
 233 718 242 741 260 759 c 0
 278 777 301 786 326 786 c 2
 512 786 l 1
 512 693 l 1
 326 693 l 1
 326 555 l 1
 512 555 l 1
 512 462 l 1
 326 462 l 1
 327 0 l 1
 233 0 l 1xb8
EndSplineSet
EndChar
StartChar: g
Encoding: 103 103 6
Width: 558
VWidth: 1989
Flags: W
HStem: -231 93<47 418> 0 93<140 418> 462 93<139 418>
VStem: 47 93<93 462> 418 93<-138 0 93 462>
LayerCount: 2
Fore
SplineSet
47 -231 m 1
 47 -138 l 1
 418 -138 l 1
 418 0 l 1
 140 0 l 2
 89 0 47 42 47 93 c 2
 46 462 l 2
 46 487 55 510 73 528 c 0
 91 546 114 555 139 555 c 2
 511 555 l 1
 511 -138 l 2
 511 -163 502 -186 484 -204 c 0
 466 -222 443 -231 418 -231 c 2
 47 -231 l 1
140 93 m 1
 418 93 l 1
 418 462 l 1
 139 462 l 1
 140 93 l 1
EndSplineSet
EndChar
StartChar: h
Encoding: 104 104 7
Width: 558
VWidth: 1989
Flags: W
HStem: 0 21G<46.9746 140 418 511> 0 21G<46.9746 140 418 511> 462 93<139 418> 767 20G<46 139>
VStem: 46 93<0 462 555 786> 418 93<0 462>
LayerCount: 2
Fore
SplineSet
139 462 m 1xbc
 140 0 l 1
 47 0 l 1
 46 786 l 1
 139 787 l 1
 139 555 l 1
 418 555 l 2
 469 555 511 513 511 462 c 2
 511 0 l 1
 418 0 l 1
 418 462 l 1
 139 462 l 1xbc
EndSplineSet
EndChar
StartChar: i
Encoding: 105 105 8
Width: 187
VWidth: 1989
Flags: W
HStem: 0 21G<46.964 140> 0 21G<46.964 140> 535 20G<46 139.036> 693 93<46 139>
VStem: 46 93<0 555 693 786>
LayerCount: 2
Fore
SplineSet
46 555 m 2xb8
 139 555 l 1
 140 0 l 1
 47 0 l 1
 46 555 l 2xb8
139 786 m 1
 139 693 l 1
 46 693 l 1
 46 786 l 1
 139 786 l 1
EndSplineSet
EndChar
StartChar: j
Encoding: 106 106 9
Width: 377
VWidth: 1989
Flags: W
HStem: -231 93<52 237> 535 20G<237 330> 693 93<237 330>
VStem: 237 93<-138 555 693 786>
LayerCount: 2
Fore
SplineSet
237 693 m 1
 237 786 l 1
 330 786 l 1
 330 693 l 1
 237 693 l 1
303 -204 m 0
 285 -222 262 -231 237 -231 c 2
 52 -231 l 1
 52 -138 l 1
 237 -138 l 1
 237 555 l 1
 330 555 l 1
 330 -138 l 2
 330 -163 321 -186 303 -204 c 0
EndSplineSet
EndChar
StartChar: k
Encoding: 107 107 10
Width: 559
VWidth: 1989
Flags: W
HStem: 0 21G<47.9203 141 422.526 512> 0 21G<47.9203 141 422.526 512> 537 20G<422.692 512> 766 20G<46 139.047>
VStem: 47 93<0 193 362 785>
LayerCount: 2
Fore
SplineSet
141 0 m 1xb8
 48 0 l 1
 47 251 l 1
 47 283 l 1
 46 785 l 1
 139 786 l 1
 140 362 l 1
 455 557 l 1
 512 557 l 1
 512 483 l 1
 181 278 l 1
 512 72 l 1
 512 -1 l 1
 455 -1 l 1
 140 193 l 1
 141 0 l 1xb8
EndSplineSet
EndChar
StartChar: l
Encoding: 108 108 11
Width: 372
VWidth: 1989
Flags: W
HStem: 0 93<139 325> 767 20G<46 139>
VStem: 46 93<93 786>
LayerCount: 2
Fore
SplineSet
46 786 m 1
 139 787 l 1
 139 93 l 1
 325 93 l 1
 325 0 l 1
 139 0 l 2
 88 0 46 42 46 93 c 2
 46 786 l 1
EndSplineSet
EndChar
StartChar: m
Encoding: 109 109 12
Width: 558
VWidth: 1989
Flags: W
HStem: 0 21G<46 139 232 326 418 511> 0 21G<46 139 232 326 418 511> 462 93<139 232 326 418>
VStem: 46 93<0 462> 232 94<0 462> 418 93<0 462>
LayerCount: 2
Fore
SplineSet
139 462 m 1xbc
 139 0 l 1
 46 0 l 1
 46 555 l 1
 418 555 l 2
 469 555 511 513 511 462 c 2
 511 0 l 1
 418 0 l 1
 418 462 l 1
 326 462 l 1
 326 0 l 1
 232 0 l 1
 232 462 l 1
 139 462 l 1xbc
EndSplineSet
EndChar
StartChar: n
Encoding: 110 110 13
Width: 558
VWidth: 1989
Flags: W
HStem: 0 21G<46 139 418 511> 0 21G<46 139 418 511> 462 93<139 418>
VStem: 46 93<0 462> 418 93<0 462>
LayerCount: 2
Fore
SplineSet
139 462 m 1xb8
 139 0 l 1
 46 0 l 1
 46 555 l 1
 418 555 l 2
 469 555 511 513 511 462 c 2
 511 0 l 1
 418 0 l 1
 418 462 l 1
 139 462 l 1xb8
EndSplineSet
EndChar
StartChar: o
Encoding: 111 111 14
Width: 558
VWidth: 1989
Flags: W
HStem: 0 93<140 418> 462 93<139 418>
VStem: 47 93<93 462> 418 93<93 462>
LayerCount: 2
Fore
SplineSet
418 0 m 1
 140 0 l 2
 89 0 47 42 47 93 c 2
 46 462 l 2
 46 487 56 510 74 528 c 0
 92 546 114 555 139 555 c 2
 418 555 l 2
 469 555 511 513 511 462 c 2
 511 93 l 2
 511 68 502 45 484 27 c 0
 466 9 443 0 418 0 c 1
139 462 m 2
 140 93 l 1
 418 93 l 1
 418 462 l 1
 139 462 l 2
EndSplineSet
EndChar
StartChar: p
Encoding: 112 112 15
Width: 558
VWidth: 1989
Flags: W
HStem: 0 93<140 418> 462 93<139 418>
VStem: 47 93<-231 0 93 462> 418 93<93 462>
LayerCount: 2
Fore
SplineSet
140 0 m 1
 140 -231 l 1
 47 -231 l 1
 46 555 l 1
 418 555 l 2
 469 555 511 513 511 462 c 2
 511 93 l 2
 511 68 502 45 484 27 c 0
 466 9 443 0 418 0 c 2
 140 0 l 1
139 462 m 1
 140 93 l 1
 418 93 l 1
 418 462 l 1
 139 462 l 1
EndSplineSet
EndChar
StartChar: q
Encoding: 113 113 16
Width: 558
VWidth: 1989
Flags: W
HStem: 0 93<139 418> 462 93<139 418>
VStem: 46 93<93 462> 418 93<-231 0 93 462>
LayerCount: 2
Fore
SplineSet
418 0 m 1
 139 0 l 2
 88 0 46 42 46 93 c 2
 46 462 l 2
 46 513 88 555 139 555 c 2
 511 555 l 1
 511 -231 l 1
 418 -231 l 1
 418 0 l 1
139 462 m 2
 139 93 l 1
 418 93 l 1
 418 462 l 1
 139 462 l 2
EndSplineSet
EndChar
StartChar: r
Encoding: 114 114 17
Width: 558
VWidth: 1989
Flags: W
HStem: 0 21G<46.964 140> 0 21G<46.964 140> 462 93<139 511>
VStem: 47 93<0 462>
LayerCount: 2
Fore
SplineSet
139 462 m 1xb0
 140 0 l 1
 47 0 l 1
 46 555 l 1
 511 555 l 1
 511 462 l 1
 139 462 l 1xb0
EndSplineSet
EndChar
StartChar: s
Encoding: 115 115 18
Width: 558
VWidth: 1989
Flags: W
HStem: 0 93<47 418> 231 93<139 418> 462 93<139 511>
VStem: 46 93<324 462> 418 93<93 231>
CounterMasks: 1 e0
LayerCount: 2
Fore
SplineSet
418 324 m 1
 469 324 511 282 511 231 c 2
 511 93 l 2
 511 42 469 0 418 0 c 2
 47 0 l 1
 47 93 l 1
 418 93 l 1
 418 231 l 1
 139 231 l 2
 88 231 46 273 46 324 c 2
 46 462 l 2
 46 487 55 510 73 528 c 0
 91 546 114 555 139 555 c 2
 511 555 l 1
 511 462 l 1
 139 462 l 1
 139 324 l 1
 418 324 l 1
EndSplineSet
EndChar
StartChar: t
Encoding: 116 116 19
Width: 559
VWidth: 1989
Flags: W
HStem: 0 93<326 512> 462 93<47 231 324 512>
VStem: 231 93<93 462 555 784>
LayerCount: 2
Fore
SplineSet
324 462 m 1
 326 93 l 1
 512 93 l 1
 512 0 l 1
 326 0 l 2
 275 0 233 42 233 93 c 2
 231 462 l 1
 47 462 l 1
 47 555 l 1
 231 555 l 1
 230 784 l 1
 323 784 l 1
 324 555 l 1
 512 555 l 1
 512 462 l 1
 324 462 l 1
EndSplineSet
EndChar
StartChar: u
Encoding: 117 117 20
Width: 558
VWidth: 1989
Flags: W
HStem: 0 93<140 418> 535 20G<46 139.043 417 511>
VStem: 47 93<93 555> 418 93<93 555>
LayerCount: 2
Fore
SplineSet
417 555 m 1
 511 555 l 1
 511 0 l 1
 140 0 l 2
 89 0 47 42 47 93 c 2
 46 555 l 1
 139 555 l 1
 140 93 l 1
 418 93 l 1
 417 555 l 1
EndSplineSet
EndChar
StartChar: v
Encoding: 118 118 21
Width: 559
VWidth: 1989
Flags: W
HStem: -1 21G<241.928 320.016> -1 21G<241.928 320.016> 537 20G<47 133.083 427.969 512>
LayerCount: 2
Fore
SplineSet
281 171 m 1xa0
 436 557 l 1
 512 557 l 1
 512 498 l 1
 312 -1 l 1
 250 -1 l 1
 47 502 l 1
 47 557 l 1
 125 557 l 1
 281 171 l 1xa0
EndSplineSet
EndChar
StartChar: w
Encoding: 119 119 22
Width: 558
VWidth: 1989
Flags: W
HStem: 0 93<140 232 325 418> 535 20G<46 139.043 232 325 417 511>
VStem: 47 93<93 555> 232 93<93 555> 418 93<93 555>
LayerCount: 2
Fore
SplineSet
511 555 m 1
 511 0 l 1
 279 0 l 1
 232 0 l 1
 140 0 l 2
 89 0 47 42 47 93 c 2
 46 555 l 1
 139 555 l 1
 140 93 l 1
 232 93 l 1
 232 555 l 1
 325 555 l 1
 325 93 l 1
 418 93 l 1
 417 555 l 1
 511 555 l 1
EndSplineSet
EndChar
StartChar: x
Encoding: 120 120 23
Width: 558
VWidth: 1989
Flags: W
HStem: -1 21G<46 131.078 426.922 511> -1 21G<46 131.078 426.922 511> 537 20G<46 129.195 427 511>
LayerCount: 2
Fore
SplineSet
279 352 m 1xa0
 443 557 l 1
 511 557 l 1
 511 493 l 1
 338 278 l 1
 511 63 l 1
 511 -1 l 1
 443 -1 l 1
 279 203 l 1
 115 -1 l 1
 46 -1 l 1
 46 62 l 1
 219 278 l 1
 46 493 l 1
 46 557 l 1
 113 557 l 1
 279 352 l 1xa0
EndSplineSet
EndChar
StartChar: y
Encoding: 121 121 24
Width: 558
VWidth: 1989
Flags: W
HStem: -231 93<47 418> 0 93<140 418> 535 20G<46 139.043 417 511>
VStem: 47 93<93 555> 418 93<-138 0 93 555>
LayerCount: 2
Fore
SplineSet
511 47 m 2
 511 0 l 1
 511 -138 l 2
 511 -189 469 -231 418 -231 c 2
 47 -231 l 1
 47 -138 l 1
 418 -138 l 1
 418 0 l 1
 140 0 l 2
 89 0 47 42 47 93 c 2
 46 555 l 1
 139 555 l 1
 140 93 l 1
 418 93 l 1
 417 555 l 1
 511 555 l 1
 511 93 l 1
 511 47 l 2
EndSplineSet
EndChar
StartChar: z
Encoding: 122 122 25
Width: 558
VWidth: 1989
Flags: W
HStem: 0 93<190 511> 462 93<46 367>
LayerCount: 2
Fore
SplineSet
46 462 m 1
 46 555 l 1
 511 555 l 1
 511 493 l 1
 190 93 l 1
 511 93 l 1
 511 0 l 1
 46 0 l 1
 46 62 l 1
 367 462 l 1
 46 462 l 1
EndSplineSet
EndChar
